HIERARCHY
ROOT Hips
{
	OFFSET -0.001795 -0.223333 0.028219
	CHANNELS 6 Xposition Yposition Zposition Zrotation Yrotation Xrotation 
	JOINT LeftUpLeg
	{
		OFFSET 0.069520 -0.091406 -0.006815
		CHANNELS 3 Zrotation Yrotation Xrotation
		JOINT LeftLeg
		{
			OFFSET 0.034277 -0.375199 -0.004496
			CHANNELS 3 Zrotation Yrotation Xrotation
			JOINT LeftFoot
			{
				OFFSET -0.013596 -0.397961 -0.043693
				CHANNELS 3 Zrotation Yrotation Xrotation
				JOINT LeftToe
				{
					OFFSET 0.026358 -0.055791 0.119288
					CHANNELS 3 Zrotation Yrotation Xrotation
					End Site
					{
						OFFSET 0.000000 0.000000 0.000000
					}
				}
			}
		}
	}
	JOINT RightUpLeg
	{
		OFFSET -0.067670 -0.090522 -0.004320
		CHANNELS 3 Zrotation Yrotation Xrotation
		JOINT RightLeg
		{
			OFFSET -0.038290 -0.382569 -0.008850
			CHANNELS 3 Zrotation Yrotation Xrotation
			JOINT RightFoot
			{
				OFFSET 0.015774 -0.398415 -0.042312
				CHANNELS 3 Zrotation Yrotation Xrotation
				JOINT RightToe
				{
					OFFSET -0.025372 -0.048144 0.123348
					CHANNELS 3 Zrotation Yrotation Xrotation
					End Site
					{
						OFFSET 0.000000 0.000000 0.000000
					}
				}
			}
		}
	}
	JOINT Spine
	{
		OFFSET -0.002533 0.108963 -0.026696
		CHANNELS 3 Zrotation Yrotation Xrotation
		JOINT Spine1
		{
			OFFSET 0.005487 0.135180 0.001092
			CHANNELS 3 Zrotation Yrotation Xrotation
			JOINT Spine2
			{
				OFFSET 0.001457 0.052922 0.025425
				CHANNELS 3 Zrotation Yrotation Xrotation
				JOINT Neck
				{
					OFFSET -0.002778 0.213870 -0.042857
					CHANNELS 3 Zrotation Yrotation Xrotation
					JOINT Head
					{
						OFFSET 0.005152 0.064970 0.051349
						CHANNELS 3 Zrotation Yrotation Xrotation
						End Site
						{
							OFFSET 0.000000 0.000000 0.000000
						}
					}
				}
				JOINT LeftShoulder
				{
					OFFSET 0.078845 0.121749 -0.034090
					CHANNELS 3 Zrotation Yrotation Xrotation
					JOINT LeftArm
					{
						OFFSET 0.090977 0.030469 -0.008868
						CHANNELS 3 Zrotation Yrotation Xrotation
						JOINT LeftForeArm
						{
							OFFSET 0.259612 -0.012772 -0.027456
							CHANNELS 3 Zrotation Yrotation Xrotation
							JOINT LeftHand
							{
								OFFSET 0.249234 0.008986 -0.001171
								CHANNELS 3 Zrotation Yrotation Xrotation
								End Site
								{
									OFFSET 0.000000 0.000000 0.000000
								}
							}
						}
					}
				}
				JOINT RightShoulder
				{
					OFFSET -0.081759 0.118833 -0.038615
					CHANNELS 3 Zrotation Yrotation Xrotation
					JOINT RightArm
					{
						OFFSET -0.096012 0.032551 -0.009143
						CHANNELS 3 Zrotation Yrotation Xrotation
						JOINT RightForeArm
						{
							OFFSET -0.253742 -0.013329 -0.021401
							CHANNELS 3 Zrotation Yrotation Xrotation
							JOINT RightHand
							{
								OFFSET -0.255298 0.007772 -0.005559
								CHANNELS 3 Zrotation Yrotation Xrotation
								End Site
								{
									OFFSET 0.000000 0.000000 0.000000
								}
							}
						}
					}
				}
			}
		}
	}
}
MOTION
Frames: 15
Frame Time: 0.050000
1.763364 0.901467 1.232051 -177.933244 48.857153 -171.562370 7.596556 -16.849316 -38.228152 -9.567299 -8.003410 21.122383 32.905313 11.893370 33.220239 0.000000 0.000000 0.000000 -6.911587 -7.147890 1.691341 -28.611910 -20.622849 41.762069 40.675207 12.910271 28.617155 0.000000 0.000000 0.000000 4.210144 -0.483689 2.930217 -2.428268 0.558297 -31.897716 1.701943 21.938379 25.405932 11.574672 4.944902 -36.254777 0.000000 0.000000 0.000000 -8.116878 -29.439862 -48.876031 -67.559943 29.675173 -24.818944 -139.994324 -33.210180 106.101394 0.000000 0.000000 0.000000 20.727937 -12.524334 44.803871 130.173291 55.621816 106.213982 -140.772733 52.728345 -51.652217 0.000000 0.000000 0.000000 
1.786934 0.907887 1.186638 -179.404131 44.751898 -172.551229 2.111319 -15.778597 -35.402233 -6.699415 -8.471761 21.828042 29.438019 7.842106 28.615952 0.000000 0.000000 0.000000 -7.091795 -8.542062 -4.389761 -49.859696 -23.297755 57.335586 45.985561 12.871661 40.512736 0.000000 0.000000 0.000000 3.292008 -0.403324 4.679649 -2.216352 0.015466 -34.054354 1.317497 20.759176 26.491642 11.514957 4.582854 -37.013690 0.000000 0.000000 0.000000 -6.516120 -30.753978 -52.650205 -67.999687 32.808170 -26.971682 -139.324633 -31.410784 105.670950 0.000000 0.000000 0.000000 19.542156 -13.294592 49.060192 140.077983 56.606157 122.392020 -136.930017 51.207819 -45.590553 0.000000 0.000000 0.000000 
1.807812 0.915246 1.144005 -179.817181 41.047452 -173.723680 -2.408086 -13.290094 -31.383723 -6.122937 -9.618520 22.953529 31.372177 4.264087 25.430928 0.000000 0.000000 0.000000 -5.958738 -9.586020 -8.772187 -64.448658 -22.422409 65.235002 55.319678 16.594832 41.486972 0.000000 0.000000 0.000000 3.156498 -0.503261 6.404606 -2.141141 0.260061 -33.342256 0.485038 19.861294 25.258708 11.116159 3.920417 -37.018987 0.000000 0.000000 0.000000 -5.129808 -31.483799 -55.899150 -67.778541 34.922366 -28.108828 -139.341599 -30.149992 107.282404 0.000000 0.000000 0.000000 18.365174 -13.484184 52.464835 149.348540 57.065006 138.125778 -130.621979 50.577427 -41.284303 0.000000 0.000000 0.000000 
1.826201 0.921995 1.103386 -179.585564 38.313466 -174.514147 -5.769331 -10.488569 -27.371377 -4.690150 -10.393965 23.666417 30.545813 1.249578 21.058964 0.000000 0.000000 0.000000 -3.471883 -10.484518 -13.834864 -74.512248 -20.724737 67.660191 67.595326 18.881385 44.498201 0.000000 0.000000 0.000000 3.614652 -0.757231 7.883282 -2.072619 0.124275 -34.016173 1.307636 19.266033 25.879800 10.060683 1.977730 -34.904508 0.000000 0.000000 0.000000 -4.346877 -31.127216 -60.833547 -67.748436 39.507402 -30.163501 -138.064828 -27.826743 105.477244 0.000000 0.000000 0.000000 17.310595 -13.667063 56.402286 155.991908 57.881903 149.566028 -126.008874 50.030876 -39.115933 0.000000 0.000000 0.000000 
1.842301 0.927615 1.064704 -179.265394 34.136250 -175.162878 -8.597312 -7.443004 -22.897321 -1.942462 -10.387782 22.774962 29.401475 -4.179485 15.523968 0.000000 0.000000 0.000000 -0.879241 -13.023527 -19.393861 -75.461022 -20.715684 66.094696 70.345574 20.915526 41.911339 0.000000 0.000000 0.000000 4.298296 -1.015424 8.634782 -2.262318 0.292802 -32.848647 0.724739 18.144340 24.901107 8.122262 -0.024971 -34.347894 0.000000 0.000000 0.000000 -1.645825 -32.662457 -64.124660 -68.720098 41.771125 -33.810061 -137.021315 -27.416290 102.256531 0.000000 0.000000 0.000000 16.114152 -14.877468 60.646909 161.799819 58.056051 160.689984 -125.357638 47.231706 -34.585692 0.000000 0.000000 0.000000 
1.856319 0.930360 1.027939 -178.651180 30.560448 -175.424136 -10.258817 -4.735763 -18.598645 1.170422 -9.683018 21.050795 29.062551 -9.386917 10.039729 0.000000 0.000000 0.000000 3.921829 -14.859622 -25.389813 -67.291969 -21.284788 58.412952 61.812034 23.790485 29.640862 0.000000 0.000000 0.000000 4.718115 -1.334132 9.728776 -2.597464 -0.172112 -34.141491 2.104445 17.149497 26.343288 5.971283 -3.221444 -32.921538 0.000000 0.000000 0.000000 1.250305 -33.127601 -70.911184 -70.163785 46.979784 -39.017572 -135.053553 -24.741994 96.516688 0.000000 0.000000 0.000000 13.529221 -15.915219 67.250820 171.970968 57.146884 -178.397889 -120.780273 40.870059 -24.318474 0.000000 0.000000 0.000000 
1.869448 0.930914 0.991848 -178.354311 26.342712 -175.687102 -11.225320 -3.078032 -15.362400 2.944377 -9.846840 20.665050 29.215705 -13.574471 5.818989 0.000000 0.000000 0.000000 7.470338 -16.405293 -29.053329 -40.392164 -19.135927 41.412813 32.728176 14.076303 7.811484 0.000000 0.000000 0.000000 5.094515 -1.629367 10.505594 -2.597833 -0.022656 -33.227081 1.924412 15.273501 26.266895 3.674562 -5.778034 -33.140723 0.000000 0.000000 0.000000 3.838875 -33.115206 -78.052224 -71.403681 51.113959 -43.085840 -133.084932 -22.618062 91.347856 0.000000 0.000000 0.000000 12.656797 -17.698027 73.310145 178.873609 56.852864 -166.746987 -121.962330 40.682870 -23.251699 0.000000 0.000000 0.000000 
1.882028 0.927756 0.955116 -178.090490 23.346677 -176.035083 -11.036442 -1.837280 -12.627245 2.507466 -10.576174 21.298285 30.450938 -15.490186 2.486659 0.000000 0.000000 0.000000 10.828647 -17.206558 -31.749424 -19.845934 -12.904220 25.790192 17.997484 3.022415 5.094314 0.000000 0.000000 0.000000 5.449551 -1.826906 10.883393 -3.451087 -0.457405 -33.008923 2.630453 14.176519 26.473029 2.320898 -8.643057 -31.973417 0.000000 0.000000 0.000000 7.384246 -33.293762 -84.553280 -74.578139 54.880562 -50.147839 -131.278253 -20.582941 84.894087 0.000000 0.000000 0.000000 9.709829 -18.599427 80.192309 -173.484527 53.927980 -147.299066 -117.554829 32.842777 -12.275412 0.000000 0.000000 0.000000 
1.894626 0.921122 0.916314 -177.872408 21.119965 -175.317753 -10.660552 -1.334409 -11.236630 1.521005 -11.714178 22.583290 32.710028 -16.042071 -0.286208 0.000000 0.000000 0.000000 12.597439 -17.164334 -32.601513 -9.539658 -8.838885 16.012532 31.540478 2.797231 9.030879 0.000000 0.000000 0.000000 5.886513 -1.911156 10.654865 -3.036642 -0.193402 -32.392564 1.483880 13.386783 25.373224 2.990464 -8.473904 -32.637199 0.000000 0.000000 0.000000 8.653759 -33.601362 -88.722266 -73.899884 57.738859 -51.115022 -130.310229 -19.844831 81.228462 0.000000 0.000000 0.000000 8.705026 -19.499254 83.229057 -172.708611 52.295113 -143.072842 -117.360049 32.271410 -12.126787 0.000000 0.000000 0.000000 
1.907010 0.913231 0.874996 -178.111791 18.423779 -175.318498 -11.276754 -0.954341 -9.436112 1.444590 -13.449927 24.562495 33.477629 -16.293859 -2.262994 0.000000 0.000000 0.000000 14.602957 -17.199271 -33.563275 -11.919910 -9.435835 17.376695 49.275514 2.020288 10.013737 0.000000 0.000000 0.000000 6.944012 -2.408915 11.026515 -4.630614 -1.540209 -34.366421 3.163220 14.868752 27.169555 3.420863 -9.602598 -33.269019 0.000000 0.000000 0.000000 13.502489 -33.838567 -102.470419 -74.519362 69.054124 -59.889609 -129.688079 -13.266006 70.309214 0.000000 0.000000 0.000000 6.319921 -22.522287 96.122313 -162.101051 45.988923 -115.097394 -111.884281 24.642781 -3.605438 0.000000 0.000000 0.000000 
1.919178 0.903632 0.831374 -178.821165 16.323626 -176.077113 -11.543458 -0.653463 -7.486894 -1.334187 -15.800418 27.537638 32.235681 -15.144016 -1.124041 0.000000 0.000000 0.000000 15.297008 -17.279747 -33.724081 -20.407813 -12.603014 23.684573 62.656467 0.391192 12.629785 0.000000 0.000000 0.000000 7.636848 -2.981880 11.738513 -5.308515 -1.868009 -33.308471 2.512260 16.035890 25.353193 3.208469 -13.805218 -30.388244 0.000000 0.000000 0.000000 16.855584 -32.909190 -111.778955 -71.352971 78.063325 -63.788977 -130.463620 -7.228241 58.986719 0.000000 0.000000 0.000000 3.944350 -22.092527 106.950103 -156.764159 40.416049 -100.280935 -111.048135 18.072373 4.198954 0.000000 0.000000 0.000000 
1.930818 0.896507 0.786404 -179.170969 13.694130 -176.191032 -10.571028 -0.562500 -7.182751 -7.561448 -19.670758 32.812022 27.399698 -13.168146 4.216294 0.000000 0.000000 0.000000 16.087439 -18.344537 -34.832706 -30.905188 -16.667532 30.914157 71.594813 0.056510 16.436298 0.000000 0.000000 0.000000 8.205891 -3.365735 12.042195 -4.659785 -1.609586 -34.037895 1.173472 17.528737 25.285142 2.816924 -17.394799 -28.813713 0.000000 0.000000 0.000000 22.756382 -28.789961 -124.549032 163.841080 87.145790 155.268132 -134.000505 6.004662 33.665136 0.000000 0.000000 0.000000 1.817783 -23.799501 118.008738 -153.204802 34.501871 -83.580926 -110.032876 11.304361 12.375276 0.000000 0.000000 0.000000 
1.941089 0.896555 0.741896 -179.106850 12.083076 -176.469724 -10.233414 -0.785865 -8.839004 -19.026078 -25.417687 42.697696 30.196591 -6.476467 19.153234 0.000000 0.000000 0.000000 14.028727 -17.180880 -32.190039 -34.891715 -19.751736 35.222966 77.836429 -0.564538 15.852698 0.000000 0.000000 0.000000 8.895247 -3.178152 10.732691 -4.577383 -1.448251 -33.736701 1.391319 17.305007 26.024181 -0.001612 -21.106157 -27.719479 0.000000 0.000000 0.000000 25.674843 -24.100753 -134.870791 125.265876 75.242423 102.384107 -137.597650 15.338408 10.766382 0.000000 0.000000 0.000000 -2.806891 -21.491855 130.852488 -149.436602 26.523417 -55.174635 -111.277118 -9.113093 36.448093 0.000000 0.000000 0.000000 
1.949233 0.903656 0.699372 -178.060639 10.247086 -176.201277 -6.638156 -2.045168 -13.041312 -46.573884 -29.136904 58.665221 37.448992 -3.377100 47.481563 0.000000 0.000000 0.000000 11.078686 -13.952145 -27.011551 -30.815442 -21.762228 35.241964 77.269211 -1.221713 9.792604 0.000000 0.000000 0.000000 9.544045 -3.442099 10.473800 -3.518231 -0.806262 -33.868581 2.310955 18.565132 26.727477 0.914911 -21.185949 -28.635369 0.000000 0.000000 0.000000 28.557691 -17.156908 -151.976673 120.477408 53.977599 73.606354 -149.113141 28.806728 -31.595463 0.000000 0.000000 0.000000 -9.865105 -19.661275 145.695200 -145.471346 17.412261 -12.225140 -125.008913 -38.369523 85.618676 0.000000 0.000000 0.000000 
1.954613 0.910771 0.658472 -178.388160 7.645244 -176.334304 -3.425809 -5.816026 -19.634053 -82.111832 -26.629513 72.714774 33.574588 -6.466274 81.179725 0.000000 0.000000 0.000000 7.264422 -11.750057 -21.504084 -24.753986 -23.051363 32.930235 77.996949 -2.840336 2.333730 0.000000 0.000000 0.000000 9.655806 -3.785339 11.140562 -3.764596 -1.539740 -36.507325 4.769391 19.675998 29.382694 -1.911538 -26.058385 -27.962164 0.000000 0.000000 0.000000 25.686526 -3.919243 175.778454 117.147571 15.605864 27.812500 178.447755 40.678383 -127.263714 0.000000 0.000000 0.000000 -16.860455 -14.117337 169.916251 -140.987632 -2.751426 45.602868 -178.410362 -57.598450 -169.254407 0.000000 0.000000 0.000000 
